<svg width="75" height="71" viewBox="0 0 75 71" fill="none" xmlns="http://www.w3.org/2000/svg">
<rect x="0.268555" y="0.55481" width="74.4987" height="70" rx="16" fill="#7253A4"/>
<path opacity="0.8" d="M52.1569 20.6449C51.0126 20.4597 49.8539 20.3643 48.6927 20.3599C44.731 20.3568 40.852 21.4242 37.5179 23.4349C34.1753 21.4506 30.2968 20.4094 26.3431 20.4349C25.182 20.4393 24.0232 20.5347 22.8789 20.7199C22.5041 20.7806 22.1646 20.9651 21.9217 21.2401C21.6788 21.5151 21.5484 21.8625 21.5539 22.2199V40.2199C21.5505 40.4403 21.5988 40.6587 21.6954 40.8595C21.792 41.0604 21.9346 41.2388 22.1129 41.382C22.2912 41.5252 22.501 41.6297 22.7272 41.6881C22.9534 41.7465 23.1905 41.7574 23.4217 41.7199C25.7094 41.3477 28.0532 41.4094 30.3151 41.9015C32.5769 42.3935 34.7112 43.3059 36.592 44.5849L36.7836 44.6899H36.9592C37.1362 44.7592 37.3261 44.7949 37.5179 44.7949C37.7097 44.7949 37.8996 44.7592 38.0766 44.6899H38.2523L38.4438 44.5849C40.3115 43.2773 42.4396 42.3354 44.702 41.8149C46.9643 41.2944 49.3148 41.206 51.6141 41.5549C51.8453 41.5924 52.0824 41.5815 52.3086 41.5231C52.5348 41.4647 52.7446 41.3602 52.9229 41.217C53.1012 41.0738 53.2438 40.8954 53.3404 40.6945C53.437 40.4937 53.4853 40.2753 53.4819 40.0549V22.0549C53.4653 21.7131 53.3249 21.3869 53.0838 21.1305C52.8428 20.874 52.5158 20.7027 52.1569 20.6449ZM35.9215 40.5799C32.968 39.1199 29.6804 38.3579 26.3431 38.3599C25.8163 38.3599 25.2895 38.3599 24.7467 38.3599V23.3599C25.2784 23.3311 25.8114 23.3311 26.3431 23.3599C29.7488 23.3563 33.0803 24.2954 35.9215 26.0599V40.5799ZM50.2891 38.4199C49.7463 38.4199 49.2195 38.4199 48.6927 38.4199C45.3554 38.4179 42.0678 39.1799 39.1143 40.6399V26.0599C41.9556 24.2954 45.287 23.3563 48.6927 23.3599C49.2244 23.3311 49.7574 23.3311 50.2891 23.3599V38.4199ZM52.1569 44.6449C51.0126 44.4597 49.8539 44.3643 48.6927 44.3599C44.731 44.3568 40.852 45.4242 37.5179 47.4349C34.1838 45.4242 30.3048 44.3568 26.3431 44.3599C25.182 44.3643 24.0232 44.4597 22.8789 44.6449C22.6711 44.6759 22.4719 44.7451 22.2927 44.8487C22.1134 44.9523 21.9578 45.0882 21.8346 45.2485C21.7115 45.4088 21.6233 45.5904 21.5751 45.7828C21.527 45.9753 21.5197 46.1748 21.5539 46.3699C21.635 46.7594 21.8772 47.1028 22.2272 47.3249C22.5773 47.5471 23.0068 47.6297 23.4217 47.5549C25.7094 47.1827 28.0532 47.2444 30.3151 47.7365C32.5769 48.2285 34.7112 49.1409 36.592 50.4199C36.8624 50.6007 37.186 50.6979 37.5179 50.6979C37.8498 50.6979 38.1735 50.6007 38.4438 50.4199C40.3247 49.1409 42.4589 48.2285 44.7208 47.7365C46.9826 47.2444 49.3265 47.1827 51.6141 47.5549C52.029 47.6297 52.4585 47.5471 52.8086 47.3249C53.1587 47.1028 53.4008 46.7594 53.4819 46.3699C53.5161 46.1748 53.5089 45.9753 53.4607 45.7828C53.4125 45.5904 53.3243 45.4088 53.2012 45.2485C53.078 45.0882 52.9224 44.9523 52.7432 44.8487C52.5639 44.7451 52.3647 44.6759 52.1569 44.6449Z" fill="white"/>
</svg>
