<svg width="168" height="24" viewBox="0 0 168 24" fill="none" xmlns="http://www.w3.org/2000/svg">
<path d="M7.55016 21.75C16.6045 21.75 21.5583 14.2467 21.5583 7.74186C21.5583 7.53092 21.5536 7.3153 21.5442 7.10436C22.5079 6.40746 23.3395 5.54425 24 4.5553C23.1025 4.9546 22.1496 5.21538 21.1739 5.32874C22.2013 4.71291 22.9705 3.74547 23.3391 2.60577C22.3726 3.17856 21.3156 3.58261 20.2134 3.80061C19.4708 3.01156 18.489 2.48912 17.4197 2.31405C16.3504 2.13899 15.2532 2.32105 14.2977 2.8321C13.3423 3.34314 12.5818 4.15471 12.1338 5.14131C11.6859 6.12792 11.5754 7.23462 11.8195 8.2903C9.86249 8.19209 7.94794 7.6837 6.19998 6.7981C4.45203 5.91249 2.90969 4.66944 1.67297 3.14952C1.0444 4.23324 0.852057 5.51565 1.13503 6.73609C1.418 7.95654 2.15506 9.02345 3.19641 9.71999C2.41463 9.69517 1.64998 9.48468 0.965625 9.10592V9.16686C0.964925 10.3041 1.3581 11.4066 2.07831 12.2868C2.79852 13.167 3.80132 13.7706 4.91625 13.995C4.19206 14.1931 3.43198 14.222 2.69484 14.0794C3.00945 15.0574 3.62157 15.9129 4.44577 16.5263C5.26997 17.1398 6.26512 17.4806 7.29234 17.5012C5.54842 18.8711 3.39417 19.6141 1.17656 19.6106C0.783287 19.61 0.390399 19.5859 0 19.5384C2.25286 20.9837 4.87353 21.7514 7.55016 21.75Z" fill="white"/>
<g clip-path="url(#clip0_1_2525)">
<path d="M70.2234 0H49.7719C48.7922 0 48 0.773438 48 1.72969V22.2656C48 23.2219 48.7922 24 49.7719 24H70.2234C71.2031 24 72 23.2219 72 22.2703V1.72969C72 0.773438 71.2031 0 70.2234 0ZM55.1203 20.4516H51.5578V8.99531H55.1203V20.4516ZM53.3391 7.43438C52.1953 7.43438 51.2719 6.51094 51.2719 5.37187C51.2719 4.23281 52.1953 3.30937 53.3391 3.30937C54.4781 3.30937 55.4016 4.23281 55.4016 5.37187C55.4016 6.50625 54.4781 7.43438 53.3391 7.43438ZM68.4516 20.4516H64.8937V14.8828C64.8937 13.5562 64.8703 11.8453 63.0422 11.8453C61.1906 11.8453 60.9094 13.2937 60.9094 14.7891V20.4516H57.3563V8.99531H60.7687V10.5609H60.8156C61.2891 9.66094 62.4516 8.70938 64.1813 8.70938C67.7859 8.70938 68.4516 11.0813 68.4516 14.1656V20.4516Z" fill="white"/>
</g>
<g clip-path="url(#clip1_1_2525)">
<path d="M120 12C120 5.37258 114.627 0 108 0C101.373 0 96 5.37258 96 12C96 17.9895 100.388 22.954 106.125 23.8542V15.4688H103.078V12H106.125V9.35625C106.125 6.34875 107.917 4.6875 110.658 4.6875C111.97 4.6875 113.344 4.92188 113.344 4.92188V7.875H111.831C110.34 7.875 109.875 8.80008 109.875 9.75V12H113.203L112.671 15.4688H109.875V23.8542C115.612 22.954 120 17.9895 120 12Z" fill="white"/>
</g>
<path fill-rule="evenodd" clip-rule="evenodd" d="M156 0C149.375 0 144 5.37527 144 12C144 18.6248 149.375 24 156 24C162.612 24 168 18.6248 168 12C168 5.37527 162.612 0 156 0ZM163.926 5.53145C165.358 7.27549 166.217 9.50107 166.243 11.9089C165.905 11.8439 162.521 11.154 159.111 11.5835C159.033 11.4143 158.967 11.2321 158.889 11.0499C158.681 10.5554 158.447 10.0477 158.213 9.56618C161.987 8.0304 163.705 5.81779 163.926 5.53145ZM156 1.77007C158.603 1.77007 160.985 2.74621 162.794 4.34707C162.612 4.60738 161.063 6.67679 157.419 8.04338C155.74 4.95878 153.879 2.43384 153.592 2.04338C154.36 1.86117 155.167 1.77007 156 1.77007ZM151.64 2.73319C151.913 3.09761 153.735 5.63558 155.44 8.65508C150.651 9.9306 146.421 9.90458 145.965 9.90458C146.629 6.72885 148.777 4.08676 151.64 2.73319ZM145.744 12.0131C145.744 11.9089 145.744 11.8048 145.744 11.7007C146.187 11.7136 151.158 11.7787 156.273 10.243C156.573 10.8156 156.846 11.4013 157.106 11.9869C156.976 12.026 156.833 12.0651 156.703 12.1041C151.419 13.8091 148.607 18.4685 148.373 18.859C146.746 17.0499 145.744 14.6421 145.744 12.0131ZM156 22.256C153.631 22.256 151.445 21.449 149.714 20.0954C149.896 19.718 151.978 15.7094 157.757 13.692C157.783 13.679 157.796 13.679 157.822 13.666C159.267 17.4013 159.853 20.5379 160.009 21.436C158.772 21.9696 157.419 22.256 156 22.256ZM161.714 20.4989C161.61 19.8742 161.063 16.8807 159.722 13.1974C162.937 12.6898 165.748 13.5228 166.1 13.6399C165.657 16.4902 164.017 18.9501 161.714 20.4989Z" fill="white"/>
<defs>
<clipPath id="clip0_1_2525">
<rect width="24" height="24" fill="white" transform="translate(48)"/>
</clipPath>
<clipPath id="clip1_1_2525">
<rect width="24" height="24" fill="white" transform="translate(96)"/>
</clipPath>
</defs>
</svg>
